<svg width="44" height="44" viewBox="0 0 44 44" fill="none" xmlns="http://www.w3.org/2000/svg">
<g filter="url(#filter0_d_1909_88)">
<path d="M2 21.5C2 10.7304 10.7304 2 21.5 2V2C32.2696 2 41 10.7304 41 21.5V41H21.5C10.7304 41 2 32.2696 2 21.5V21.5Z" fill="url(#paint0_linear_1909_88)"/>
</g>
<path d="M25.8724 23.3744C25.8724 23.3744 25.3645 23.8298 25.5491 25.5753C25.8281 28.2132 26.2106 28.7976 25.3645 30.7488C24.8232 31.9973 25.1411 33.6353 25.1411 33.6353" stroke="#292929" stroke-width="0.5" stroke-miterlimit="10" stroke-linecap="round" stroke-linejoin="round"/>
<path fill-rule="evenodd" clip-rule="evenodd" d="M29.838 12.7982C27.5039 11.9198 24.8479 13.229 23.9104 15.7199C22.9729 18.2109 23.6609 22.131 25.9951 23.0094C28.3291 23.8878 31.4309 21.3939 32.3684 18.9031C33.3059 16.412 32.1721 13.6765 29.838 12.7982Z" fill="#AB81FF"/>
<path fill-rule="evenodd" clip-rule="evenodd" d="M26.3804 23.123L26.3344 23.2453L26.5125 23.8262L26.0622 23.6568L25.7747 23.8461L25.6595 23.5053L25.1411 23.4454L25.7105 23.0106L25.7566 22.8882L26.3804 23.123Z" fill="#7049BE"/>
<mask id="mask0_1909_88" style="mask-type:luminance" maskUnits="userSpaceOnUse" x="25" y="22" width="2" height="2">
<path d="M25.3713 22.8794H26.5254V23.2742H25.3713V22.8794Z" fill="white"/>
</mask>
<g mask="url(#mask0_1909_88)">
<mask id="mask1_1909_88" style="mask-type:luminance" maskUnits="userSpaceOnUse" x="25" y="22" width="2" height="2">
<path d="M26.3806 23.1234L26.3346 23.2458L26.5127 23.8267L26.0625 23.6573L25.7749 23.8466L25.6598 23.5058L25.1414 23.4459L25.7108 23.011L25.7568 22.8887L26.3806 23.1234Z" fill="white"/>
</mask>
<g mask="url(#mask1_1909_88)">
<path fill-rule="evenodd" clip-rule="evenodd" d="M25.5515 22.3555L26.7598 22.8102L26.5905 23.2604C26.146 23.2331 25.7441 23.0792 25.3821 22.8057L25.5515 22.3555Z" fill="#451E92"/>
</g>
</g>
<path fill-rule="evenodd" clip-rule="evenodd" d="M27.2992 12.6504C25.8212 13.0098 24.512 14.1216 23.9104 15.7201C22.9729 18.2112 23.6609 22.1312 25.9951 23.0097C27.0955 23.4238 28.3668 23.0883 29.5015 22.3567C28.837 22.5292 28.1723 22.5307 27.5601 22.3004C25.2262 21.4219 24.5381 17.5019 25.4756 15.011C25.8511 14.0128 26.5027 13.2043 27.2992 12.6504Z" fill="#7049BE"/>
<path fill-rule="evenodd" clip-rule="evenodd" d="M30.6017 14.5215C30.2021 14.6935 30.0809 15.305 30.3312 15.8862C30.5816 16.4675 31.1091 16.7997 31.5086 16.6277C31.908 16.4558 32.0291 15.8442 31.7789 15.2629C31.5286 14.6817 31.0011 14.3494 30.6017 14.5215Z" fill="#C0A0FF"/>
<path fill-rule="evenodd" clip-rule="evenodd" d="M31.342 16.9941C31.1268 16.9601 30.9118 17.1865 30.8621 17.4995C30.8125 17.8124 30.9469 18.0944 31.1619 18.1284C31.377 18.1625 31.592 17.9361 31.6418 17.6232C31.6915 17.3101 31.5572 17.0283 31.342 16.9941Z" fill="#C0A0FF"/>
<path d="M17.8486 22.9497C17.8486 22.9497 19.4142 25.4547 18.7044 27.6211C17.8486 30.2328 19.1543 33.5127 19.1543 33.5127" stroke="#292929" stroke-width="0.5" stroke-miterlimit="10" stroke-linecap="round" stroke-linejoin="round"/>
<path fill-rule="evenodd" clip-rule="evenodd" d="M13.7589 12.4273C16.0718 11.4944 18.7578 12.7409 19.7535 15.2092C20.7491 17.6776 20.1533 21.6126 17.8405 22.5456C15.5277 23.4785 12.3681 21.0583 11.3725 18.5898C10.3768 16.1216 11.4462 13.3603 13.7589 12.4273Z" fill="#74D892"/>
<path fill-rule="evenodd" clip-rule="evenodd" d="M17.4578 22.6683L17.5068 22.7895L17.3423 23.3745L17.7883 23.1946L18.0803 23.3771L18.1875 23.0336L18.7043 22.9616L18.1249 22.5402L18.076 22.4189L17.4578 22.6683Z" fill="#53B26F"/>
<mask id="mask2_1909_88" style="mask-type:luminance" maskUnits="userSpaceOnUse" x="17" y="22" width="2" height="1">
<path d="M17.3389 22.4092H18.4625V22.8192H17.3389V22.4092Z" fill="white"/>
</mask>
<g mask="url(#mask2_1909_88)">
<mask id="mask3_1909_88" style="mask-type:luminance" maskUnits="userSpaceOnUse" x="17" y="22" width="2" height="2">
<path d="M17.4578 22.6683L17.5068 22.7895L17.3423 23.3745L17.7883 23.1946L18.0803 23.3771L18.1875 23.0336L18.7043 22.9616L18.1249 22.5402L18.076 22.4189L17.4578 22.6683Z" fill="white"/>
</mask>
<g mask="url(#mask3_1909_88)">
<path fill-rule="evenodd" clip-rule="evenodd" d="M18.2686 21.8813L17.0713 22.3642L17.2512 22.8103C17.6948 22.7727 18.093 22.6094 18.4485 22.3273L18.2686 21.8813Z" fill="#278242"/>
</g>
</g>
<path fill-rule="evenodd" clip-rule="evenodd" d="M16.2936 12.2197C17.7795 12.5445 19.1145 13.6252 19.7534 15.2091C20.7491 17.6775 20.1532 21.6126 17.8404 22.5455C16.7499 22.9854 15.4712 22.6798 14.3196 21.9751C14.9879 22.1319 15.6526 22.1178 16.259 21.8732C18.5718 20.9404 19.1676 17.0051 18.172 14.5369C17.7731 13.5478 17.1027 12.755 16.2936 12.2197Z" fill="#53B36F"/>
<path fill-rule="evenodd" clip-rule="evenodd" d="M13.0357 14.1682C13.4392 14.3309 13.5746 14.9392 13.3381 15.5262C13.1015 16.1132 12.5819 16.4577 12.1785 16.2951C11.7751 16.1325 11.6396 15.524 11.8761 14.937C12.1127 14.3501 12.6323 14.0056 13.0357 14.1682Z" fill="#98F4B4"/>
<path fill-rule="evenodd" clip-rule="evenodd" d="M12.354 16.6578C12.5683 16.6186 12.7885 16.8399 12.8455 17.1516C12.9026 17.4633 12.7748 17.7483 12.5605 17.7875C12.3463 17.8267 12.126 17.6055 12.069 17.2936C12.012 16.9819 12.1396 16.697 12.354 16.6578Z" fill="#98F4B4"/>
<path d="M21.9038 21.2901C21.9038 21.2901 21.7652 23.2407 22.2904 24.9516C22.9654 27.1503 22.2904 27.7447 21.6323 29.7346C20.8745 32.026 22.2904 35 22.2904 35" stroke="#292929" stroke-width="0.5" stroke-miterlimit="10" stroke-linecap="round" stroke-linejoin="round"/>
<path fill-rule="evenodd" clip-rule="evenodd" d="M22.0179 10C24.5118 10 26.5365 12.1608 26.5365 14.8223C26.5365 17.4839 24.5118 20.9103 22.0179 20.9103C19.524 20.9103 17.4993 17.4839 17.4993 14.8223C17.4993 12.1608 19.524 10 22.0179 10Z" fill="#FFD49A"/>
<path fill-rule="evenodd" clip-rule="evenodd" d="M21.617 20.8809V21.0116L21.2456 21.4926H21.7266L21.929 21.7711L22.157 21.4926L22.6632 21.6191L22.2834 21.0116V20.8809H21.617Z" fill="#F6B863"/>
<mask id="mask4_1909_88" style="mask-type:luminance" maskUnits="userSpaceOnUse" x="21" y="20" width="2" height="2">
<path d="M21.3628 20.875H22.6687V21.042H21.3628V20.875Z" fill="white"/>
</mask>
<g mask="url(#mask4_1909_88)">
<mask id="mask5_1909_88" style="mask-type:luminance" maskUnits="userSpaceOnUse" x="21" y="20" width="2" height="2">
<path d="M21.617 20.8809V21.0116L21.2456 21.4926H21.7266L21.929 21.7711L22.157 21.4926L22.6632 21.6191L22.2834 21.0116V20.8809H21.617Z" fill="white"/>
</mask>
<g mask="url(#mask5_1909_88)">
<path fill-rule="evenodd" clip-rule="evenodd" d="M22.6631 20.4546H21.3721V20.9355C21.7975 21.0665 22.228 21.0641 22.6631 20.9355V20.4546Z" fill="#D78F2C"/>
</g>
</g>
<path fill-rule="evenodd" clip-rule="evenodd" d="M24.446 10.7559C25.7027 11.6129 26.5365 13.1145 26.5365 14.8224C26.5365 17.484 24.5118 20.9104 22.0178 20.9104C20.842 20.9104 19.7704 20.1487 18.9661 19.0644C19.5272 19.4598 20.1489 19.6953 20.8027 19.6953C23.2965 19.6953 25.3212 16.2689 25.3212 13.6074C25.3212 12.5408 24.9963 11.5549 24.446 10.7559Z" fill="#F6B863"/>
<path fill-rule="evenodd" clip-rule="evenodd" d="M20.6957 11.3442C21.009 11.6459 20.907 12.2609 20.4681 12.7167C20.0291 13.1725 19.4184 13.2978 19.1051 12.9961C18.7918 12.6943 18.8937 12.0793 19.3327 11.6234C19.7716 11.1676 20.3824 11.0424 20.6957 11.3442Z" fill="#FFECD3"/>
<path fill-rule="evenodd" clip-rule="evenodd" d="M19.1321 13.3977C19.3456 13.4415 19.467 13.7292 19.4033 14.0396C19.3395 14.3501 19.1145 14.5666 18.9011 14.5228C18.6878 14.4789 18.5663 14.1913 18.63 13.8809C18.6937 13.5704 18.9187 13.3539 19.1321 13.3977Z" fill="#FFECD3"/>
<defs>
<filter id="filter0_d_1909_88" x="0.5" y="0.5" width="43" height="43" filterUnits="userSpaceOnUse" color-interpolation-filters="sRGB">
<feFlood flood-opacity="0" result="BackgroundImageFix"/>
<feColorMatrix in="SourceAlpha" type="matrix" values="0 0 0 0 0 0 0 0 0 0 0 0 0 0 0 0 0 0 127 0" result="hardAlpha"/>
<feOffset dx="0.5" dy="0.5"/>
<feGaussianBlur stdDeviation="1"/>
<feComposite in2="hardAlpha" operator="out"/>
<feColorMatrix type="matrix" values="0 0 0 0 0 0 0 0 0 0 0 0 0 0 0 0 0 0 0.1 0"/>
<feBlend mode="normal" in2="BackgroundImageFix" result="effect1_dropShadow_1909_88"/>
<feBlend mode="normal" in="SourceGraphic" in2="effect1_dropShadow_1909_88" result="shape"/>
</filter>
<linearGradient id="paint0_linear_1909_88" x1="21.5" y1="2" x2="21.5" y2="41" gradientUnits="userSpaceOnUse">
<stop stop-color="#EBFAFD"/>
<stop offset="1" stop-color="#C9E9F1"/>
</linearGradient>
</defs>
</svg>
